<?xml version="1.0" encoding="UTF-8"?><svg id="Logo" xmlns="http://www.w3.org/2000/svg" viewBox="0 0 1085.34 216.71"><polygon points="39.58 0 0 0 0 216.71 39.6 216.71 39.58 0"/><polygon points="249.91 0 210.31 0 210.31 150.21 98.97 0 59.38 0 59.38 216.71 98.97 216.71 98.97 66.49 210.33 216.71 249.93 216.71 249.91 0"/><g><path d="M353.85,0h-84.14V216.71h84.14c28.7-.03,56.21-11.46,76.51-31.78,20.28-20.31,31.7-47.84,31.74-76.56-.04-28.72-11.45-56.26-31.74-76.57C410.07,11.47,382.55,.03,353.85,0Zm63.46,134.63c-3.45,8.34-8.51,15.92-14.89,22.3-6.38,6.38-13.95,11.44-22.29,14.88-8.34,3.44-17.27,5.2-26.28,5.18h-44.54V39.56h44.54c9.02-.02,17.96,1.74,26.31,5.19,8.34,3.45,15.92,8.51,22.3,14.9,6.38,6.39,11.44,13.98,14.88,22.33,3.44,8.35,5.21,17.3,5.19,26.34,0,9.03-1.76,17.97-5.21,26.31Z"/><path d="M462.1,108.32v0Z"/></g><polygon points="516.51 0 476.95 0 476.95 216.71 516.54 216.71 516.51 0"/><polygon points="709.53 0 536.3 0 536.3 39.65 603.17 39.65 603.17 216.71 642.77 216.71 642.77 39.56 709.59 39.56 709.53 0"/><polygon points="879.59 176.99 768.86 176.99 768.86 128.14 879.59 128.14 879.59 88.49 768.86 88.49 768.86 39.56 879.59 39.56 879.59 0 729.33 0 729.33 216.71 879.59 216.71 879.59 176.99"/><path d="M1013.1,106.37L1083.57,0h-49.13l-45.43,70.47L943.56,0h-49.13l70.47,106.46-72.41,110.24h49.45l46.98-74.36,46.96,74.36h49.46l-72.24-110.33Z"/></svg>